<?xml version="1.0" encoding="iso-8859-1"?>
<!-- Uploaded to: SVG Repo, www.svgrepo.com, Generator: SVG Repo Mixer Tools -->
<svg height="800px" width="800px" version="1.1" id="Capa_1" xmlns="http://www.w3.org/2000/svg" xmlns:xlink="http://www.w3.org/1999/xlink" 
	 viewBox="0 0 288.374 288.374" xml:space="preserve">
<g>
	<path style="fill:#010002;" d="M144.184,288.371C64.524,288.371,0,223.777,0,144.181C0,64.526,64.524,0.003,144.184,0.003
		c79.601,0,144.19,64.524,144.19,144.184C288.374,223.777,223.785,288.371,144.184,288.371L144.184,288.371z M144.184,21.182
		c-67.896,0-122.999,55.081-122.999,122.999s55.103,122.939,122.999,122.939c67.923,0,122.939-55.016,122.939-122.939
		S212.107,21.182,144.184,21.182L144.184,21.182z M143.232,243.015c-54.516,0-98.811-44.29-98.811-98.833
		c0-54.603,44.296-98.811,98.811-98.811c54.608,0,98.833,44.209,98.833,98.811C242.066,198.724,197.841,243.015,143.232,243.015
		L143.232,243.015z M144.141,66.686c-42.735,0-77.431,34.718-77.431,77.496c0,42.718,34.696,77.431,77.431,77.431
		c42.778,0,77.474-34.718,77.474-77.431C221.615,101.403,186.919,66.686,144.141,66.686L144.141,66.686z M144.141,197.968
		c-29.746,0-53.809-24.106-53.809-53.847c0-29.681,24.062-53.787,53.809-53.787s53.847,24.106,53.847,53.787
		C197.993,173.868,173.887,197.968,144.141,197.968L144.141,197.968z M143.325,110.437c-18.205,0-32.879,14.68-32.879,32.879
		c0,18.118,14.675,32.857,32.879,32.857c18.112,0,32.814-14.74,32.814-32.857C176.139,125.123,161.437,110.437,143.325,110.437
		L143.325,110.437z"/>
</g>
</svg>